# xmcd
#
# Track frame offsets:
#	150
#	15867
#	33775
#	47675
#	62764
#	76939
#	93002
#	108908
#	125012
#	141283
#	159767
#	176676
#	193379
#	207685
#	225255
#	243866
#	260451
#	274871
#	288626
#	305212
#	323112
#	323869
#
# Disc length: 4324
#
# Revision: 1
# Processed by: cddbd v1.5.1PL0 Copyright (c) Steve Scherf et al.
# Submitted via: VisiTrax 2.9.5.180 - For more info visit www.synapsa.com
# Normalized: r0:DSETVAR1
#
DISCID=3110e216
DTITLE=Various Artist - CDX 198 October 1998
DYEAR=1998
DGENRE=
TTITLE0=Hal Ketchum - A girl like you
TTITLE1=Allison Moorer - Alabama song
TTITLE2=Olivia Newton John - Back with a heart
TTITLE3=Billy Ray Cyrus - Busy man
TTITLE4=Steve Wariner - Every little whisper
TTITLE5=Wilkinsons - Fly (The angel song)
TTITLE6=Tracy Lawrence - I'll never pass this way again
TTITLE7=Linda Davis - I'm yours
TTITLE8=Chris Knight - It ain't easy being me
TTITLE9=Mindy McCready - Let's talk about love
TTITLE10=Bellamy Brothers - Let your love flow
TTITLE11=Sara Evans - No place that far
TTITLE12=Tracy Byrd - On again off again
TTITLE13=Alan Jackson - Right on the money
TTITLE14=Karen Staley - Somebody's child
TTITLE15=Kinleys - Sombody's out there watching
TTITLE16=Lisa Brokop - When you get to be you
TTITLE17=Lisa Brokop - When you get to be you
TTITLE18=Steven McClintock - Don't let this plane touch down
TTITLE19=Cledus T Judd - Hankenstein
TTITLE20=Steve Wariner - Liner
TTITLE21=Steve Wariner - Liner
EXTD=
EXTT0=
EXTT1=
EXTT2=
EXTT3=
EXTT4=
EXTT5=
EXTT6=
EXTT7=
EXTT8=
EXTT9=
EXTT10=
EXTT11=
EXTT12=
EXTT13=
EXTT14=
EXTT15=
EXTT16=
EXTT17=
EXTT18=
EXTT19=
EXTT20=
EXTT21=
PLAYORDER=
